<?xml version="1.0" encoding="utf-8"?>
<!-- Generator: Adobe Illustrator 16.0.4, SVG Export Plug-In . SVG Version: 6.00 Build 0)  -->
<!DOCTYPE svg PUBLIC "-//W3C//DTD SVG 1.1//EN" "http://www.w3.org/Graphics/SVG/1.1/DTD/svg11.dtd">
<svg version="1.1" id="Layer_1" xmlns="http://www.w3.org/2000/svg" xmlns:xlink="http://www.w3.org/1999/xlink" x="0px" y="0px"
	 width="310px" height="179.5px" viewBox="474.5 678.5 310 179.5" enable-background="new 474.5 678.5 310 179.5"
	 xml:space="preserve">
<g>
	<polyline fill="#3EAD49" points="524.528,713.917 524.538,713.917 524.533,713.911 524.528,713.917 	"/>
	<path fill="#3EAD49" d="M524.281,713.56c0.465,0.129,0.541,0.255,0.493,0.329h0.001c0.239-0.39-0.134-0.549-0.664-0.593
		C524.136,713.417,524.174,713.53,524.281,713.56"/>
	<path fill="#3EAD49" d="M523.312,713.298c-0.132,0.01-0.26,0.022-0.381,0.038c-0.239,0.072-0.455,0.145-0.735,0.152
		c0.749-0.021,1.146-0.031,1.333-0.034c-0.129-0.021-0.256-0.041-0.381-0.038C523.204,713.373,523.258,713.341,523.312,713.298"/>
	<path fill="#3EAD49" d="M523.947,714.199c-0.072,0.017-0.107,0.034-0.146,0.046c0.043,0.136,0.09,0.244,0.083,0.231
		C523.84,714.402,523.884,714.34,523.947,714.199"/>
	<path fill="#3EAD49" d="M522.965,714.292c0.367-0.286,0.749-0.563,0.861-0.564c-0.19-0.001-0.51,0.14-0.682,0.332
		C523.117,714.09,523.05,714.182,522.965,714.292"/>
	<path fill="#3EAD49" d="M523.067,713.924c-0.021,0.008-0.042,0.016-0.064,0.024c0.02-0.007,0.035-0.009,0.046-0.01
		C523.054,713.935,523.063,713.928,523.067,713.924"/>
	<path fill="#3EAD49" d="M523.826,713.729c-0.147,0.001-0.106,0.242-0.043,0.452C524.051,713.862,524.002,713.729,523.826,713.729"
		/>
	<path fill="#3EAD49" d="M561.926,715.545c-0.059-0.075-0.118-0.149-0.179-0.225c-0.066-0.048-0.126-0.104-0.193-0.149
		C561.678,715.298,561.802,715.432,561.926,715.545"/>
	<path fill="#3EAD49" d="M531.61,706.489c0.014,0.004,0.024,0.009,0.038,0.013C531.716,706.503,531.685,706.497,531.61,706.489"/>
	<path fill="#3EAD49" d="M522.197,714.91c-0.045-0.105,0.083-0.284,0.255-0.462C522.275,714.612,522.143,714.785,522.197,714.91"/>
	<path fill="#3EAD49" d="M562.02,715.761c0.041,0.021,0.081,0.042,0.12,0.052c-0.006-0.007-0.013-0.015-0.019-0.023
		C562.088,715.78,562.052,715.776,562.02,715.761"/>
	<path fill="#3EAD49" d="M550.37,709.581C550.16,709.134,550.869,709.581,550.37,709.581 M552.396,708.894
		c-0.06,0.073-0.119,0.146-0.175,0.223C552.083,709.005,552.334,708.889,552.396,708.894 M553.29,708.941
		C552.782,708.894,553.969,709.002,553.29,708.941 M549.987,709.661c2.851,0.239,3.317-0.385,5.087-1.047
		c-0.449-0.493-1.587-0.184-2.265-0.721c-0.736,0.462-1.815,1.074-2.71,1.293c0.062,0.167,0.122,0.329,0.113,0.389
		C550.029,709.414,549.953,709.443,549.987,709.661"/>
	<path fill="#3EAD49" d="M564.04,727.619c-0.021,0.004-0.046,0.002-0.069,0.005C563.763,727.664,563.52,727.714,564.04,727.619"/>
	<path fill="#3EAD49" d="M564.083,727.604c-0.015,0.005-0.029,0.011-0.043,0.016C564.203,727.584,564.172,727.588,564.083,727.604"
		/>
	<path fill="#3EAD49" d="M523.437,715.023L523.437,715.023c0.029,0,0.074,0.001,0.061,0.001
		C525.612,715.037,523.591,715.022,523.437,715.023"/>
	<path fill="#3EAD49" d="M556.341,713.93c-0.006,0.35,0.058,0.629,0.296,0.521c0.005-0.002,0.013-0.002,0.019-0.007
		C556.41,714.173,556.349,714.043,556.341,713.93"/>
	<path fill="#3EAD49" d="M556.501,712.906c-0.007-0.016-0.035,0.08-0.066,0.229C556.495,713.062,556.546,713,556.501,712.906"/>
	<path fill="#3EAD49" d="M556.363,713.595c-0.008,0.074-0.015,0.148-0.018,0.221C556.355,713.756,556.363,713.687,556.363,713.595"
		/>
	<path fill="#3EAD49" d="M558.639,713.256c-0.167,0.249-0.5,0.19-0.864,0.06C558.046,713.482,558.422,713.581,558.639,713.256"/>
	<path fill="#3EAD49" d="M558.988,712.743c-0.639,0.072-0.93,0.164-0.883,0.273C558.104,712.932,558.776,712.788,558.988,712.743"/>
	<polyline fill="#3EAD49" points="558.112,713.032 558.105,713.024 558.112,713.032 	"/>
	<path fill="#3EAD49" d="M559.44,713.787c-0.266-0.181-0.501-0.364-0.617-0.537c-0.032,0.01-0.061,0.02-0.105,0.024
		C558.894,713.517,559.16,713.659,559.44,713.787"/>
	<path fill="#3EAD49" d="M556.636,714.452c0.752,0.129,1.632,0.165,2.476,0.191c-0.341-0.135-0.674-0.28-1.033-0.32
		C557.547,714.264,557.158,714.542,556.636,714.452"/>
	<path fill="#3EAD49" d="M523.434,715.023L523.434,715.023C523.414,715.023,523.404,715.023,523.434,715.023"/>
	<path fill="#3EAD49" d="M561.104,714.927c-0.055-0.031-0.11-0.063-0.168-0.092c0.242,0.18,0.537,0.516,0.821,0.752
		C561.526,715.391,561.326,715.118,561.104,714.927"/>
	<path fill="#3EAD49" d="M522.787,714.03c0.047-0.055,0.1-0.101,0.155-0.141C523.003,713.812,523.003,713.776,522.787,714.03"/>
	<path fill="#3EAD49" d="M523.188,708.6c-0.012-0.01-0.03-0.013-0.041-0.022c0.02,0.02,0.027,0.027,0.031,0.03
		C523.182,708.604,523.184,708.602,523.188,708.6"/>
	<path fill="#3EAD49" d="M523.497,715.024c-0.023-0.001-0.04-0.001-0.062-0.001C523.475,715.023,523.49,715.024,523.497,715.024"/>
	<path fill="#3EAD49" d="M524.13,713.523c-0.188,0.002-0.365-0.03-0.537-0.059C523.277,713.487,522.21,713.544,524.13,713.523"/>
	<path fill="#3EAD49" d="M523.959,713.587c0.059-0.017,0.117-0.038,0.171-0.064C524.072,713.544,524.016,713.566,523.959,713.587"/>
	<path fill="#3EAD49" d="M538.762,708.164c0.027,0.004,0.044,0.006,0.073,0.011c-2.276,0.778-5.765,1.794-4.57-0.102
		c-0.153-0.027-0.301-0.09-0.446-0.167c-0.012,0.006-0.019,0.012-0.033,0.018c0.014-0.006,0.021-0.011,0.033-0.018
		c-0.503-0.262-0.971-0.708-1.43-0.621c0.754-0.13,0.733-0.188-0.059-0.174c0.29-0.618,2.31-0.671,3.339-0.729
		c-0.682,0.037,2.81-0.251,3.852-0.313c0.07-0.041,0.084-0.033,0.075-0.005c0.093-0.005,0.167-0.009,0.197-0.008
		c-0.706,0.602-0.237,0.123-0.197,0.008c-0.025,0.001-0.047,0.002-0.075,0.005c-0.082,0.046-0.234,0.155-0.498,0.364
		c0.908-0.122,1.819-0.222,2.732-0.298c-0.088,0.14-1.966,0.503-2.245,0.648c0.593-0.07,0.299-0.033,0.631,0.141
		c-0.175,0.431-1.369,0.501-1.635,0.716c0.008,0.031-0.006,0.09-0.06,0.061C539.066,708.049,538.993,708.152,538.762,708.164
		 M532.386,713.614c0,0-1.178-0.435-1.688-0.403c-0.054,0.025-0.124,0.051-0.221,0.078c0.032-0.053,0.118-0.072,0.221-0.078
		c0.132-0.062,0.142-0.12,0.016-0.173c0.332-0.277,0.694-0.506,1.071-0.709c0.047-0.097,0.142-0.171,0.309-0.17
		c-0.106,0.05-0.205,0.114-0.309,0.17c-0.106,0.218,0.064,0.558,0.433,0.473c0.039,0.009,0.044,0.012,0.039,0.014
		C532.949,712.991,532.157,713.44,532.386,713.614 M531.165,713.467C530.883,714.058,531.061,713.667,531.165,713.467
		C531.182,713.435,531.118,713.565,531.165,713.467 M531.156,707.254c-0.161,0.027-0.173,0.037-0.041,0.03
		c-0.116,0.073-0.259,0.106-0.411,0.129c-0.08,0.059-0.144,0.105-0.165,0.121c-0.067,0.048,0.206-0.154,0,0
		c0.062-0.046,0.111-0.083,0.164-0.121c-0.64,0.085-1.52-0.184-1.973-0.103c-0.429,0.078-0.027-0.138,0,0
		c-0.012-0.061,0.026-0.155,0.086-0.235c-0.281,0.007-0.716,0.004,0.003-0.024c0.006,0,0.009,0.001,0.015,0.001
		c0.131-0.157,0.354-0.238,0.498,0.154c-0.726,0.037,0.977,0.02,1.603,0.033c0.413-0.309,0.237-0.176,0,0
		C531.068,707.242,531.155,707.247,531.156,707.254 M528.415,706.969c-0.165-0.137,0.504-0.183,0.347,0.002
		c0.052-0.002,0.065,0-0.002,0.007c0.002-0.003,0-0.004,0.002-0.007C528.608,706.977,528.092,707.006,528.415,706.969
		 M527.933,707.378C527.816,707.378,528.676,706.994,527.933,707.378 M527.504,707.039
		C527.452,707.045,527.309,707.039,527.504,707.039C526.219,707.039,528.76,706.896,527.504,707.039 M527.4,707.338
		c-0.042,0.011-0.061,0.004-0.061-0.002C527.339,707.342,527.358,707.35,527.4,707.338
		C527.051,707.215,527.811,707.224,527.4,707.338 M528.592,706.759C528.617,706.745,528.696,706.755,528.592,706.759
		C528.14,706.772,528.882,706.607,528.592,706.759 M529.472,706.88c-0.016,0.006-0.024,0.007-0.023,0.007
		C529.448,706.887,529.456,706.886,529.472,706.88C529.153,706.943,529.489,706.875,529.472,706.88 M530.911,706.521
		c0.008,0.001,0.015,0,0.022,0C530.926,706.521,530.92,706.521,530.911,706.521 M529.266,706.741c-0.013,0-0.003-0.001,0.089-0.004
		c-0.031,0.009-0.053,0.015-0.072,0.02c0.006,0.001,0.015,0.001,0.022,0.001c0.19-0.033,0.687-0.105,1.091-0.017
		c0.35-0.021,0.667-0.061,0.769-0.13c-0.265-0.044-0.307-0.089-0.125-0.132c-0.282-0.002-0.635-0.082,0.048-0.149
		c-0.086-0.004-0.156-0.007-0.219-0.011c-0.006,0.009-0.122,0.019-0.469,0.026c0.042-0.016,0.133-0.029,0.246-0.041
		c-0.216-0.015-0.078-0.014,0.062-0.006c0.747-0.062,2.532-0.046,3.468-0.073c0.123-0.012,0.317-0.029,0.599-0.051
		c-0.014,0.027-0.25,0.042-0.599,0.051c-0.236,0.026-0.177,0.035,0.191,0.025c-2.033,0.57-2.353,0.572-4.544,0.781
		c-0.12,0.03-0.236,0.066-0.353,0.112c0.093-0.065,0.215-0.098,0.353-0.112c0.466-0.11,0.453-0.104,0.942-0.132
		c-0.101-0.078-0.229-0.127-0.368-0.159c-0.423,0.025-0.889,0.025-1.091,0.017c-0.089,0.015-0.11,0.021-0.022-0.001
		c-0.011-0.001-0.019-0.001-0.028-0.001c-0.029,0.005-0.057,0.01-0.094,0.014c0.014-0.007,0.038-0.013,0.067-0.016
		C529.189,706.75,529.196,706.745,529.266,706.741 M541.371,708.546c-0.553,0.24-1.598-0.02-1.852-0.057
		c-0.021-0.004,0.042-0.066,0,0C539.508,708.507,541.545,708.254,541.371,708.546 M523.402,726.646
		c0.089-0.29,0.549,0.102,0.555,0.238C523.817,727.085,523.307,726.938,523.402,726.646 M520.75,726.234
		C520.109,725.859,520.998,725.554,520.75,726.234c-0.015-0.008,2.143-2.944,2.228,0.061
		C522.605,726.226,520.66,726.481,520.75,726.234 M526.701,709.756C527.017,709.44,527.865,709.621,526.701,709.756
		 M526.207,707.957c-0.023-0.018-0.051-0.045-0.089-0.098C527.844,706.711,526.938,708.714,526.207,707.957 M526.519,708.451
		c-0.124,0.031-0.979,0.031-0.532-0.038C525.814,708.446,526.661,708.145,526.519,708.451 M526.132,708.656
		c0.053-0.031,0.125-0.07,0.124-0.087C526.252,708.609,526.205,708.637,526.132,708.656 M526.341,707.483
		C526.836,707.574,525.957,707.513,526.341,707.483 M526.894,707.16c-0.02,0.001-0.054,0.005-0.124,0.01c-0.022,0-0.022,0-0.017,0
		c-0.1,0.002,0.081-0.01,0.144-0.012c0.007-0.003,0.007-0.001,0.009,0c0.006,0,0.006,0,0.001,0.001
		c-0.001,0.011-0.042,0.056-0.173,0.171c-0.009,0.008-0.076,0.011,0,0C526.653,707.341,526.836,707.193,526.894,707.16
		 M527.087,707.32c-0.018,0-0.012,0.004-0.004,0.005C527.075,707.324,527.069,707.32,527.087,707.32 M526.159,707.032
		c0.038-0.003,0.078-0.006,0.118-0.014C526.266,707.029,526.22,707.032,526.159,707.032 M525.201,707.135
		c0.064-0.038,0.127-0.039,0.186-0.002C525.316,707.186,525.256,707.186,525.201,707.135 M524.985,707.312
		c0.367,0.055,0.107,0.018,0.024,0.004C525.01,707.318,524.964,707.312,524.985,707.312 M522.828,708.63
		c0.024-0.001,0.027,0.003,0.024,0.007C522.971,708.676,522.358,709.017,522.828,708.63 M545.307,709.235
		c-0.246,0.386-0.598,0.663-1.057,0.83c0.138,0.009,0.271,0.018-0.001,0.001c-0.283-0.021-0.148-0.012-0.009-0.002
		C543.035,709.968,545.59,708.604,545.307,709.235 M545.214,708.271c-0.002,0.064-0.087,0.131-0.2,0.125
		C544.803,708.383,545.191,708.27,545.214,708.271 M545.674,709.356c0.279,0.054-0.276,0.088-0.023,0.007
		C545.648,709.363,545.65,709.361,545.674,709.356 M547.497,710.342c-0.676,0.141-1.36,0.22-2.051,0.238
		c0.263-0.445,0.763-0.577,0.758-1.137c-0.37-0.002-1.076-0.601-1.095-0.953c-0.004,0.006-0.009,0.004-0.006-0.031
		C546.628,708.587,546.02,710.027,547.497,710.342 M548.076,706.125c0.002,0.002,0.005,0.002,0.006,0.003
		c0-0.004-0.003-0.007-0.005-0.006c0.002-0.001,0.004,0.002,0.005,0.006c0.065,0.03,0.135,0.044,0.172,0.087
		C548.151,706.202,547.997,706.142,548.076,706.125 M555.525,716.406c0.25-0.017,0.543,0.069,0.754,0.149
		C556.091,716.644,555.681,716.496,555.525,716.406 M550.165,714.153c-0.009-0.084-0.122-0.146-0.143-0.227
		C550.906,713.789,550.277,715.103,550.165,714.153 M550.291,713.75C549.492,713.527,550.736,712.786,550.291,713.75
		 M548.165,714.165c0.135-0.105,0.218-0.086,0.251,0.063C548.431,714.366,548.175,714.175,548.165,714.165 M553.337,714.514
		c-0.234-0.061-0.76,0.315-0.83,0.483c0.127,0.316-0.847,1.103-0.988,0.058c0.301-0.113,0.515-0.16,0.67-0.169
		c-0.678-0.577-1.397-2.55-2.674-1.905c-0.638,0.325-1.401,1.035-2.125,1.559c1.664,0.48,3.072,2.077,3.703,2.281
		c1.808,0.585,2.263-0.314,3.581,0.218c1.097,0.443,2.787,0.741,3.968,0.42c0.429,1.983,0.198,2.205-0.695,0.667
		c0.114,2.136,3.649,9.768,6.023,9.498c0.041-0.008,0.08-0.016,0.112-0.021c0.477-0.173,0.954-0.349,1.431-0.523
		c1.791,4.252-6.599,6.844-4.15,11.097c0.619,1.073-1.569,6.889-2.194,7.545c-2.075,2.178-2.445,3.715-5.162,5.148
		c-2.717,1.435-3.376-9.688-3.063-11.036c0.716-3.049-2.502-7.226-3.418-9.06c-0.458-0.917-4.683,1.199-6.21-0.335
		c-1.752-1.765-3.142-5.555-1.798-7.932c0.388-0.682,3.505-6.407,4.133-6.407c0.588-0.79,1.189-1.254,1.783-1.492
		c-3.326-1.539,1.499-1.336,1.438-2.522c-1.424,0.771-0.308-2.04-0.279-1.308c1.61,0.129,2.214-0.867,2.78-1.516
		c-0.451-0.042-0.774-0.288-0.833-0.887c0.234-0.172,0.199-0.223-0.104-0.152c0.487-0.77,2.403-0.861,2.671-1.698
		c-0.751,0.014-0.571-0.046-0.464-0.058c0.04-0.139,0.1-0.247,0.173-0.333c-0.44,0.065-0.708,0.09-0.847,0.097
		c0.147,0.009,0.407,0.049,0.669,0.181c-0.306,0.199-0.458,0.204-0.458,0.017c-0.074-0.008-1.552-0.058-1.556-0.1
		c0.536,0,0.128-0.142-0.223-0.142c-0.017,0-0.095-0.022,0,0c-0.633-0.146,0.829-0.144,1.254-0.05
		c-0.049-0.035-0.062-0.056-0.06-0.071c-0.053-0.006-0.106-0.02-0.158-0.031c-0.03,0.014-0.084,0.008-0.191-0.044
		c0.063,0.021,0.127,0.03,0.191,0.044c0.017-0.008,0.037-0.014,0.03-0.043c0.527,0.015-0.968-1.177,1.464,0.018
		c1.469-1.028,7.144,4.754,10.815,9.312c0.211,0.153,0.418,0.31,0.608,0.495c-0.029,0.011-0.066,0.016-0.119,0.009
		c-0.003,0-0.006-0.002-0.009-0.002c-0.029-0.001-0.057,0.001-0.086-0.008c1.401,1.777,2.452,3.315,2.75,4.099
		c-0.578-0.833-0.876-0.856-0.896-0.069c0.284,0.57,1.008,1.362,1.633,2.208c-3.205-11.263-13.563-19.517-25.856-19.517
		c-5.599,0-10.799,1.713-15.104,4.643c0.062,0.006,0.131,0.014,0.223,0.024c0.041,0.013,0.009,0.009-0.02,0.004
		c-0.043-0.001-0.129-0.01-0.216-0.02c-0.909,0.619-1.774,1.295-2.598,2.018c0.195-0.119,0.389-0.239,0.588-0.339
		c0.093-0.046,0.2-0.078,0.312-0.103c0.074-0.053,0.146-0.105,0.217-0.156c0.001,0-0.045-0.045-0.031-0.031
		c0.062,0.058,0.231-0.384,0.81-0.811c0.021,0.091,0.058,0.157,0.102,0.212c0.2-0.144,0.364-0.262,0.475-0.345
		c-0.025-0.003-0.036,0.005-0.066-0.004c0.04-0.026,0.093-0.039,0.142-0.054c0.038-0.03,0.062-0.05,0.072-0.06
		c-0.013,0.002-0.025,0.006-0.037,0.009c-0.02,0.01-0.042,0.022-0.077,0.043c-0.243,0.054-0.155,0.019,0.077-0.043
		c0.037-0.02,0.049-0.021,0.037-0.009c0.269-0.072,0.695-0.173,1.041-0.229c0.008-0.015,0.069-0.062,0.238-0.172
		c-0.077,0.05-0.268,0.016,0,0c0.108-0.007-0.116,0.128-0.205,0.167c0.109-0.016,0.21-0.03,0.292-0.034
		c0.013,0.145,0.104,0.19,0.269,0.14c-0.187,0.111-0.352,0.209-0.528,0.314c0.049-0.009,0.091-0.011,0.123,0
		c-0.503,0.138-0.558,0.339-0.163,0.602c-0.286,0.076-1.043,0.339-1.686,0.418c-0.004,0.002-0.008,0.004-0.013,0.007
		c1.118,0.084,2.401,0.35,2.848-0.309c-0.257,0.059-0.083-0.266-0.18-0.247c-0.027,0.017-0.052,0.023-0.079,0.042
		c0.038-0.028,0.062-0.04,0.079-0.042c0.621-0.377,1.048,0.311,2.125,0.026c-0.399,0.028-0.788-0.023-1.166-0.148
		c0.314,0.133,0.808-0.653,0.002-0.263c0.238-0.017,0.123,0.021-0.345,0.11c0.933-0.665,1.182-0.335,1.936-0.291
		c0.005,0,0.009,0,0.014,0.001c-0.005-0.001-0.009-0.001-0.014-0.001c-0.811,0.162,3.198,0.274,3.118,0.94
		c0.04-0.283-1.177,0.758-1.148,1.015c0.102,0.029,0.173,0.047,0.188,0.044c-0.129,0.031-0.183,0.008-0.188-0.044
		c-0.297-0.085-0.885-0.268-1.376-0.348c-0.551,0.332-1.104,0.541-0.755,0.07c0.1-0.13,0.401-0.126,0.755-0.07
		c0.489-0.294,0.977-0.688,0.832-0.793c-0.66,0.094-0.688,0.079-0.083-0.047c-0.147-0.07-0.293-0.118-0.476-0.151
		c-0.066,0.011-0.131,0.022-0.182,0.063c0.046-0.039,0.092-0.06,0.134-0.072c-0.232-0.036-0.526-0.045-0.96-0.028
		c1.286,0.122-0.794,0.664-1.121,0.738c-0.042,0.315,0.629,0.103,0.716,0.318c-2.016,0.568-1.42-0.225-1.241-0.207
		c1.463-1.282-1.53,0.481-3.189,1.443c0.358,0.146,0.949,0.685,1.272,1.06c-0.394-2.333,9.124-1.076,5.656-0.018
		c0.417,0.013,0.825-0.048,1.221-0.188c0.157,0.531-0.504,0.821-1.315,1.02c0.084,0.037-0.155,0.104-0.076,0.018
		c-0.153,0.037-0.31,0.07-0.468,0.101c0.22,0.015,0.332,0.121,0.474,0.196c-0.196,0.144-0.469-0.04-0.634-0.166
		c-0.771,0.143-1.516,0.245-1.727,0.414c0.542-0.165,1.09-0.219,1.65-0.156c-0.262,0.463,0.286,1.194,0.342,1.079
		c-0.492,0.242-1.006,0.423-1.542,0.543c-0.112,0.058,0.535-0.719,0.498-0.669c-1.725,0.053-5.087,2.589-4.966,2.281
		c-0.684,0.681-4.153,5.56-4.429,5.522c0.107,0.015-1.429-5.647-4.107-0.957c-0.15-0.053-2.102,3.58-1.202,3.767
		c0.895-0.428,1.794-0.846,2.697-1.254c-1.402,2.899-1.505,5.735-0.819,8.113c0.07-0.054,0.124-0.122,0.201-0.169
		c0.155,0.327,0.181,0.665,0.076,1.012c-0.104-0.272-0.194-0.556-0.276-0.843c-0.29,0.229-0.53,0.502-0.683,0.849
		c-0.279-0.796-0.507-1.605-0.683-2.43c0.932-1.302-2.181-5.339-1.418-7.868c0.32-1.062,0.753-2.262,1.288-3.496
		c-1.56,3.405-2.435,7.188-2.435,11.178c0,10.248,5.735,19.154,14.169,23.69c-1.336-0.979-0.991-1.956-2.196-4.909
		c-0.759-0.996-0.609-3.402-1.1-4.538c-0.117-0.277-3.174-2.426-3.699-2.993c-2.96-3.194-1.441-3.025-1.5-6.298
		c-1.926-0.61,1.108-4.188,1.482-3.666c0.104,0.109-0.33,1.307,0.246,1.272c0.027-0.002,0.125-1.193,0.119-1.23
		c-0.167,0.005,2.389,0.625,2.866,0.569c-0.016-0.053-0.046-0.104-0.056-0.159c0.165,0.099,0.164,0.146,0.056,0.159
		c0.805,2.774,8.179,4.589,10.274,5.011c0.79,0.17,0.287,0.065,0.022,0.007c2.938,0.709-3.711,12.521-3.826,12.216
		c0.446,1.155,0.385,2.64-0.985,3.001c0.097-0.025,0.936,2.262,0.973,2.805c3.102,1.25,6.49,1.946,10.04,1.946
		c14.849,0,26.887-12.034,26.887-26.884c0-1.404-0.11-2.783-0.316-4.129c-0.285,0.347-0.767,0.653-1.518,0.897
		c-0.784,0.253-5.377-6.033-5.418-7.005c-0.171-3.675-3.309-1.932-3.858-4.324c0.267-0.231,0.578-0.312,0.928-0.251
		c-0.355-0.071-2.954-0.805-0.998,0.829c-0.601-0.331-0.724-0.202-0.368,0.385"/>
	<path fill="#3EAD49" d="M538.446,707.7c0.007-0.021,0.036-0.041,0.06-0.061C538.499,707.613,538.476,707.608,538.446,707.7"/>
	<path fill="#3EAD49" d="M562.005,715.755c-0.045-0.021-0.084-0.05-0.126-0.078C561.922,715.707,561.964,715.733,562.005,715.755"/>
	<path fill="#3EAD49" d="M559.44,713.787c-0.28-0.128-0.546-0.271-0.722-0.512c0.044-0.004,0.073-0.015,0.105-0.024
		c-0.126-0.186-0.115-0.361,0.165-0.507c-0.212,0.045-0.883,0.188-0.883,0.273c0.001,0.003-0.001,0.005,0,0.007
		c0.001,0.003,0.005,0.005,0.007,0.008c0.049,0.068,0.223,0.143,0.527,0.224c-0.218,0.325-0.593,0.226-0.864,0.06
		c-0.347-0.124-0.719-0.312-1.012-0.383c-0.07,0.029-0.225,0.051-0.262-0.026c0.046,0.092-0.005,0.155-0.066,0.229
		c-0.025,0.125-0.052,0.289-0.071,0.459c0,0.091-0.009,0.161-0.019,0.221c-0.002,0.04-0.004,0.078-0.005,0.115
		c0.009,0.113,0.07,0.243,0.315,0.514c-0.005,0.006-0.013,0.005-0.019,0.008c0.522,0.089,0.911-0.189,1.443-0.129
		c0.358,0.04,0.691,0.185,1.033,0.319c0.526,0.017,1.041,0.03,1.496,0.057C560.524,714.454,559.934,714.125,559.44,713.787"/>
	<path fill="#3EAD49" d="M556.501,712.906c0.075-0.01,0.165,0.003,0.262,0.026C556.831,712.903,556.814,712.864,556.501,712.906"/>
	<path fill="#3EAD49" d="M523.049,713.938c0.102-0.011-0.305,0.238-0.597,0.51c-0.172,0.178-0.3,0.357-0.255,0.462
		c0.001,0.004,0.375-0.311,0.768-0.617c0.085-0.112,0.153-0.202,0.18-0.232c0.171-0.194,0.492-0.333,0.682-0.333l0.002-0.001
		c0,0,0,0.001-0.002,0.001c0.176,0.001,0.225,0.134-0.044,0.452c0.006,0.022,0.013,0.044,0.02,0.065
		c0.04-0.012,0.074-0.028,0.146-0.046c-0.063,0.14-0.107,0.204-0.063,0.278c0.161-0.31,0.376-0.494,0.644-0.559
		c0.001-0.001,0.004-0.004,0.004-0.006c0.001,0.003,0.004,0.003,0.006,0.005c0.075-0.018,0.152-0.029,0.236-0.028
		c0.047-0.074-0.028-0.2-0.493-0.329c-0.106-0.029-0.146-0.142-0.169-0.264c-0.248-0.021-0.529-0.017-0.8,0.003
		c-0.055,0.042-0.108,0.075-0.163,0.118c0.124-0.002,0.251,0.017,0.381,0.038c0.186-0.002,0.165,0.002,0.062,0.01
		c0.171,0.029,0.349,0.062,0.537,0.059c-0.054,0.026-0.111,0.048-0.17,0.064c-0.297,0.113-0.594,0.225-0.893,0.337
		C523.063,713.927,523.054,713.934,523.049,713.938"/>
	<path fill="#3EAD49" d="M522.195,713.487c0.28-0.008,0.496-0.08,0.735-0.153C522.564,713.379,522.268,713.442,522.195,713.487"/>
	<path fill="#3EAD49" d="M522.942,713.889c-0.055,0.04-0.107,0.084-0.155,0.141C522.836,714.009,522.902,713.94,522.942,713.889"/>
	<path fill="#3EAD49" d="M562.236,715.824c0.053,0.007,0.089,0.002,0.118-0.009c-0.041,0.016-0.083,0.009-0.127,0.006
		C562.23,715.822,562.232,715.824,562.236,715.824"/>
	<path fill="#3EAD49" d="M561.926,715.545c-0.125-0.114-0.248-0.247-0.372-0.374c-0.143-0.094-0.3-0.165-0.451-0.244
		c0.222,0.191,0.423,0.463,0.653,0.66c0.041,0.033,0.082,0.061,0.121,0.089c0.042,0.028,0.083,0.058,0.126,0.079
		c0.005,0.002,0.011,0.004,0.016,0.007c0.032,0.015,0.068,0.019,0.101,0.029C562.057,715.71,561.993,715.627,561.926,715.545"/>
	<path fill="#3EAD49" d="M524.591,714.526c0.012-0.099,1.025-0.013,1.213-0.299C525.641,714.226,524.553,714.311,524.591,714.526"/>
	<path fill="#3EAD49" d="M531.234,706.476c0.023-0.001,0.049,0,0.075,0C531.291,706.475,531.266,706.475,531.234,706.476"/>
	<path fill="#3EAD49" d="M531.648,706.502c-0.014-0.004-0.024-0.009-0.038-0.013c-0.077-0.006-0.195-0.015-0.301-0.014
		c0.051,0.002,0.042,0.011-0.075,0C531.467,706.493,531.59,706.501,531.648,706.502"/>
</g>
<path d="M523.433,715.023L523.433,715.023L523.433,715.023z"/>
<g>
	<polyline points="523.433,715.023 523.436,715.023 523.438,715.023 523.433,715.023 	"/>
	<path d="M540.831,706.312c-0.074,0.003-0.135,0.006-0.163,0.007C540.752,706.328,540.761,706.327,540.831,706.312"/>
	<path d="M537.902,706.264c-0.096-0.002-0.183,0-0.251,0.003C537.674,706.274,537.772,706.271,537.902,706.264"/>
	<path d="M597.902,718.482"/>
	<path d="M597.902,718.482"/>
</g>
<path fill="none" stroke="#000000" stroke-miterlimit="10" d="M8.959,37.913"/>
<path fill="none" stroke="#3EAD49" stroke-width="3" stroke-miterlimit="10" d="M487.857,729.167
	c9.991-15.451,34.614-28.27,51.661-28.245"/>
<path fill="none" stroke="#000000" stroke-miterlimit="10" d="M487.779,730.41c13.757,15.164,34.691,27.085,51.738,27.06"/>
<path fill="none" stroke="#000000" stroke-width="5" stroke-miterlimit="10" d="M546.695,701.719"/>
<path fill="none" stroke="#000000" stroke-width="5" stroke-miterlimit="10" d="M16.214,39.895"/>
<path fill="none" stroke="#000000" stroke-width="5" stroke-miterlimit="10" d="M546.695,701.719"/>
<path fill="none" stroke="#000000" stroke-width="5" stroke-miterlimit="10" d="M16.214,39.895"/>
<path fill="none" stroke="#000000" stroke-width="5" stroke-miterlimit="10" d="M546.695,701.719"/>
<path fill="none" stroke="#000000" stroke-width="5" stroke-miterlimit="10" d="M16.214,39.895"/>
<path fill="none" stroke="#000000" stroke-width="5" stroke-miterlimit="10" d="M546.695,701.719"/>
<path fill="none" stroke="#000000" stroke-width="5" stroke-miterlimit="10" d="M16.214,39.895"/>
<path fill="none" stroke="#3EAD49" stroke-width="3" stroke-miterlimit="10" d="M487.857,729.818
	c9.991,15.451,34.613,28.27,51.66,28.244"/>
<path fill="none" stroke="#3EAD49" stroke-width="3" stroke-miterlimit="10" d="M590.867,729.167
	c-9.991-15.451-34.614-28.27-51.661-28.245"/>
<path fill="none" stroke="#3EAD49" stroke-width="3" stroke-miterlimit="10" d="M590.867,729.818
	c-9.991,15.452-34.614,28.27-51.661,28.245"/>
<ellipse fill="#3EAD49" cx="8.544" cy="39.421" rx="1.122" ry="1.439"/>
<ellipse fill="#3EAD49" cx="591.411" cy="729.508" rx="1.121" ry="1.439"/>
<rect x="593.249" y="697.286" fill="none" width="235.129" height="90.117"/>
<text transform="matrix(1 0 0 1 595.7891 717.4824)" enable-background="new    "><tspan x="0" y="0" fill="#3EAD49" font-family="'MyriadPro-Regular'" font-size="31.8999">GLOBAL EYE</tspan><tspan x="23.478" y="38.28" fill="#3EAD49" font-family="'MyriadPro-Regular'" font-size="31.8999">PROJECT</tspan></text>
<text transform="matrix(1 0 0 1 502.2891 802.9824)" enable-background="new    "><tspan x="0" y="0" fill="#3EAD49" font-family="'MyriadPro-Regular'" font-size="31.8999">GLOBAL EYE</tspan><tspan x="23.478" y="38.28" fill="#3EAD49" font-family="'MyriadPro-Regular'" font-size="31.8999">PROJECT</tspan></text>
<text transform="matrix(1 0 0 1 494.7891 658.4824)" enable-background="new    "><tspan x="0" y="0" fill="#3EAD49" font-family="'MyriadPro-Regular'" font-size="31.8999">GLOBAL EYE</tspan><tspan x="23.478" y="38.28" fill="#3EAD49" font-family="'MyriadPro-Regular'" font-size="31.8999">PROJECT</tspan></text>
</svg>
